
<svg width="32" height="32" viewBox="0 0 32 32" fill="none" xmlns="http://www.w3.org/2000/svg">
  <!-- Gradient Heart -->
  <defs>
    <linearGradient id="heartGradient" x1="0%" y1="0%" x2="100%" y2="100%">
      <stop offset="0%" stop-color="#FF0844"/>
      <stop offset="25%" stop-color="#FF4B2B"/>
      <stop offset="50%" stop-color="#FFB347"/>
      <stop offset="75%" stop-color="#2980B9"/>
      <stop offset="100%" stop-color="#6DD5FA"/>
    </linearGradient>
  </defs>
  
  <path d="M2 10.5C2 6.91 4.91 4 8.5 4C11.18 4 13.49 5.56 14.44 7.8C14.63 8.24 15.37 8.24 15.56 7.8C16.51 5.56 18.82 4 21.5 4C25.09 4 28 6.91 28 10.5C28 12.32 27.29 14.04 25.97 15.7C23.57 18.71 19.87 21.94 15.65 25.84C15.28 26.19 14.72 26.19 14.36 25.84C10.13 21.94 6.43 18.71 4.03 15.7C2.71 14.04 2 12.32 2 10.5Z" 
        fill="url(#heartGradient)" 
        stroke="url(#heartGradient)" 
        stroke-width="0.5"/>
</svg>
