
<svg width="32" height="32" viewBox="0 0 32 32" fill="none" xmlns="http://www.w3.org/2000/svg">
  <rect width="32" height="32" rx="6" fill="#111827"/>
  
  <!-- Blue Heart (Bottom) -->
  <path d="M16 24.7c-.2 0-.3-.1-.5-.2-3.6-3.3-6.8-6.1-8.8-8.7-1.1-1.4-1.7-2.8-1.7-4.3 0-2.5 1.9-4.4 4.4-4.4 1.4 0 2.8.7 3.7 1.8l.4.5.9 1.3.9-1.3.4-.5c.9-1.1 2.3-1.8 3.7-1.8 2.5 0 4.4 1.9 4.4 4.4 0 1.5-.6 2.8-1.7 4.3-2 2.6-5.2 5.5-8.8 8.7-.1.1-.3.2-.5.2z" transform="translate(1, 2)" fill="#0EA5E9" stroke="#0EA5E9"/>
  
  <!-- Red Heart (Middle) -->
  <path d="M16 24.7c-.2 0-.3-.1-.5-.2-3.6-3.3-6.8-6.1-8.8-8.7-1.1-1.4-1.7-2.8-1.7-4.3 0-2.5 1.9-4.4 4.4-4.4 1.4 0 2.8.7 3.7 1.8l.4.5.9 1.3.9-1.3.4-.5c.9-1.1 2.3-1.8 3.7-1.8 2.5 0 4.4 1.9 4.4 4.4 0 1.5-.6 2.8-1.7 4.3-2 2.6-5.2 5.5-8.8 8.7-.1.1-.3.2-.5.2z" transform="translate(0, 1)" fill="#E11D48" stroke="#E11D48"/>
  
  <!-- Yellow Heart (Top) -->
  <path d="M16 24.7c-.2 0-.3-.1-.5-.2-3.6-3.3-6.8-6.1-8.8-8.7-1.1-1.4-1.7-2.8-1.7-4.3 0-2.5 1.9-4.4 4.4-4.4 1.4 0 2.8.7 3.7 1.8l.4.5.9 1.3.9-1.3.4-.5c.9-1.1 2.3-1.8 3.7-1.8 2.5 0 4.4 1.9 4.4 4.4 0 1.5-.6 2.8-1.7 4.3-2 2.6-5.2 5.5-8.8 8.7-.1.1-.3.2-.5.2z" transform="translate(-1, 0)" fill="#FACC15" stroke="#FACC15"/>
</svg>
