
<svg width="32" height="32" viewBox="0 0 32 32" fill="none" xmlns="http://www.w3.org/2000/svg">
  <!-- Gradient Heart -->
  <defs>
    <linearGradient id="heartGradient" x1="0%" y1="0%" x2="100%" y2="100%">
      <stop offset="0%" stop-color="#FF0844"/>
      <stop offset="25%" stop-color="#FF4B2B"/>
      <stop offset="50%" stop-color="#FFB347"/>
      <stop offset="75%" stop-color="#2980B9"/>
      <stop offset="100%" stop-color="#6DD5FA"/>
    </linearGradient>
  </defs>
  
  <path d="M16 28c-.3 0-.5-.1-.7-.3-4.3-4-8-7.3-10.3-10.3-1.3-1.7-2-3.4-2-5.2 0-3 2.3-5.2 5.2-5.2 1.7 0 3.3.8 4.3 2.1l.5.6 1 1.6 1.1-1.6.5-.6c1-1.3 2.6-2.1 4.3-2.1 3 0 5.2 2.3 5.2 5.2 0 1.8-.7 3.5-2 5.2-2.4 3.1-6.1 6.3-10.3 10.3-.2.2-.5.3-.8.3z" 
        fill="url(#heartGradient)" 
        stroke="url(#heartGradient)" 
        stroke-width="0.5"/>
</svg>
