
<svg width="32" height="32" viewBox="0 0 32 32" fill="none" xmlns="http://www.w3.org/2000/svg">
  <rect width="32" height="32" rx="6" fill="#111827"/>
  
  <!-- Gradient Heart -->
  <defs>
    <linearGradient id="heartGradient" x1="0%" y1="0%" x2="100%" y2="100%">
      <stop offset="0%" stop-color="#FF0844"/>
      <stop offset="25%" stop-color="#FF4B2B"/>
      <stop offset="50%" stop-color="#FFB347"/>
      <stop offset="75%" stop-color="#2980B9"/>
      <stop offset="100%" stop-color="#6DD5FA"/>
    </linearGradient>
  </defs>
  
  <path d="M16 26c-.2 0-.4-.1-.5-.2-3.8-3.5-7-6.4-9.1-9.1-1.1-1.5-1.7-3-1.7-4.5 0-2.6 2-4.6 4.6-4.6 1.5 0 2.9.7 3.8 1.9l.4.5.9 1.4 1-1.4.4-.5c.9-1.2 2.3-1.9 3.8-1.9 2.6 0 4.6 2 4.6 4.6 0 1.5-.6 3-1.7 4.5-2.1 2.7-5.3 5.7-9.1 9.1-.1.1-.3.2-.5.2z" 
        fill="url(#heartGradient)" 
        stroke="url(#heartGradient)" 
        stroke-width="0.5"/>
</svg>
